<mxfile host="app.diagrams.net" agent="Mozilla/5.0 (Windows NT 10.0; Win64; x64) AppleWebKit/537.36 (KHTML, like Gecko) Chrome/138.0.0.0 Safari/537.36 OPR/122.0.0.0" version="28.2.8">
  <diagram name="Página-1" id="USZ6-4DbQ1jZ43OzeacZ">
    <mxGraphModel dx="1384" dy="755" grid="1" gridSize="10" guides="1" tooltips="1" connect="1" arrows="1" fold="1" page="1" pageScale="1" pageWidth="827" pageHeight="1169" math="0" shadow="0">
      <root>
        <mxCell id="0" />
        <mxCell id="1" parent="0" />
        <mxCell id="1RvodT8-D2HOuSGf13Yo-2" value="" style="rounded=0;whiteSpace=wrap;html=1;" vertex="1" parent="1">
          <mxGeometry x="29" y="560" width="770" height="600" as="geometry" />
        </mxCell>
        <mxCell id="1RvodT8-D2HOuSGf13Yo-3" value="" style="rounded=0;whiteSpace=wrap;html=1;" vertex="1" parent="1">
          <mxGeometry x="29" y="560" width="770" height="150" as="geometry" />
        </mxCell>
        <mxCell id="1RvodT8-D2HOuSGf13Yo-6" value="" style="rounded=0;whiteSpace=wrap;html=1;" vertex="1" parent="1">
          <mxGeometry x="29" y="710" width="770" height="150" as="geometry" />
        </mxCell>
        <mxCell id="1RvodT8-D2HOuSGf13Yo-7" value="" style="rounded=0;whiteSpace=wrap;html=1;" vertex="1" parent="1">
          <mxGeometry x="29" y="860" width="770" height="150" as="geometry" />
        </mxCell>
        <mxCell id="1RvodT8-D2HOuSGf13Yo-8" value="" style="rounded=0;whiteSpace=wrap;html=1;" vertex="1" parent="1">
          <mxGeometry x="30" y="1010" width="770" height="150" as="geometry" />
        </mxCell>
        <mxCell id="1RvodT8-D2HOuSGf13Yo-9" value="Processo de abertura da Filial BERG EUA" style="text;html=1;whiteSpace=wrap;strokeColor=none;fillColor=none;align=center;verticalAlign=middle;rounded=0;fontSize=16;" vertex="1" parent="1">
          <mxGeometry x="29" y="500" width="770" height="60" as="geometry" />
        </mxCell>
        <mxCell id="1RvodT8-D2HOuSGf13Yo-10" value="" style="rounded=0;whiteSpace=wrap;html=1;" vertex="1" parent="1">
          <mxGeometry x="30" y="560" width="90" height="150" as="geometry" />
        </mxCell>
        <mxCell id="1RvodT8-D2HOuSGf13Yo-11" value="" style="rounded=0;whiteSpace=wrap;html=1;" vertex="1" parent="1">
          <mxGeometry x="29" y="710" width="90" height="150" as="geometry" />
        </mxCell>
        <mxCell id="1RvodT8-D2HOuSGf13Yo-12" value="" style="rounded=0;whiteSpace=wrap;html=1;" vertex="1" parent="1">
          <mxGeometry x="29" y="860" width="90" height="150" as="geometry" />
        </mxCell>
        <mxCell id="1RvodT8-D2HOuSGf13Yo-13" value="" style="rounded=0;whiteSpace=wrap;html=1;" vertex="1" parent="1">
          <mxGeometry x="29" y="1010" width="90" height="150" as="geometry" />
        </mxCell>
        <mxCell id="1RvodT8-D2HOuSGf13Yo-14" value="&lt;font style=&quot;font-size: 16px;&quot;&gt;Compras&lt;/font&gt;" style="text;html=1;whiteSpace=wrap;strokeColor=none;fillColor=none;align=center;verticalAlign=middle;rounded=0;direction=west;flipV=1;flipH=1;" vertex="1" parent="1">
          <mxGeometry x="43" y="617.5" width="64" height="35" as="geometry" />
        </mxCell>
        <mxCell id="1RvodT8-D2HOuSGf13Yo-15" value="&lt;font style=&quot;font-size: 16px;&quot;&gt;Recursos&lt;br&gt;Humanos&lt;/font&gt;" style="text;html=1;whiteSpace=wrap;strokeColor=none;fillColor=none;align=center;verticalAlign=middle;rounded=0;direction=west;flipV=1;flipH=1;" vertex="1" parent="1">
          <mxGeometry x="43" y="767.5" width="64" height="35" as="geometry" />
        </mxCell>
        <mxCell id="1RvodT8-D2HOuSGf13Yo-16" value="&lt;span style=&quot;font-size: 16px;&quot;&gt;Logística&lt;/span&gt;" style="text;html=1;whiteSpace=wrap;strokeColor=none;fillColor=none;align=center;verticalAlign=middle;rounded=0;direction=west;flipV=1;flipH=1;" vertex="1" parent="1">
          <mxGeometry x="43" y="917.5" width="64" height="35" as="geometry" />
        </mxCell>
        <mxCell id="1RvodT8-D2HOuSGf13Yo-17" value="&lt;span style=&quot;font-size: 16px;&quot;&gt;Gestor&lt;/span&gt;" style="text;html=1;whiteSpace=wrap;strokeColor=none;fillColor=none;align=center;verticalAlign=middle;rounded=0;direction=west;flipV=1;flipH=1;" vertex="1" parent="1">
          <mxGeometry x="42" y="1100" width="64" height="35" as="geometry" />
        </mxCell>
        <mxCell id="1RvodT8-D2HOuSGf13Yo-28" style="edgeStyle=orthogonalEdgeStyle;rounded=0;orthogonalLoop=1;jettySize=auto;html=1;exitX=1;exitY=0.5;exitDx=0;exitDy=0;entryX=0;entryY=0.5;entryDx=0;entryDy=0;" edge="1" parent="1" source="1RvodT8-D2HOuSGf13Yo-18" target="1RvodT8-D2HOuSGf13Yo-21">
          <mxGeometry relative="1" as="geometry" />
        </mxCell>
        <mxCell id="1RvodT8-D2HOuSGf13Yo-18" value="Início" style="ellipse;whiteSpace=wrap;html=1;" vertex="1" parent="1">
          <mxGeometry x="130" y="602.5" width="100" height="50" as="geometry" />
        </mxCell>
        <mxCell id="1RvodT8-D2HOuSGf13Yo-19" value="Fim" style="ellipse;whiteSpace=wrap;html=1;" vertex="1" parent="1">
          <mxGeometry x="194" y="1070" width="100" height="50" as="geometry" />
        </mxCell>
        <mxCell id="1RvodT8-D2HOuSGf13Yo-29" style="edgeStyle=orthogonalEdgeStyle;rounded=0;orthogonalLoop=1;jettySize=auto;html=1;" edge="1" parent="1" source="1RvodT8-D2HOuSGf13Yo-21" target="1RvodT8-D2HOuSGf13Yo-22">
          <mxGeometry relative="1" as="geometry" />
        </mxCell>
        <mxCell id="1RvodT8-D2HOuSGf13Yo-21" value="Procurar local" style="whiteSpace=wrap;html=1;fillColor=none;sketch=0;pointerEvents=1;resizable=0;" vertex="1" parent="1">
          <mxGeometry x="320" y="597.5" width="120" height="60" as="geometry" />
        </mxCell>
        <mxCell id="1RvodT8-D2HOuSGf13Yo-30" style="edgeStyle=orthogonalEdgeStyle;rounded=0;orthogonalLoop=1;jettySize=auto;html=1;" edge="1" parent="1" source="1RvodT8-D2HOuSGf13Yo-22" target="1RvodT8-D2HOuSGf13Yo-23">
          <mxGeometry relative="1" as="geometry" />
        </mxCell>
        <mxCell id="1RvodT8-D2HOuSGf13Yo-34" value="Sim" style="edgeLabel;html=1;align=center;verticalAlign=middle;resizable=0;points=[];" vertex="1" connectable="0" parent="1RvodT8-D2HOuSGf13Yo-30">
          <mxGeometry x="-0.6353" y="3" relative="1" as="geometry">
            <mxPoint y="1" as="offset" />
          </mxGeometry>
        </mxCell>
        <mxCell id="1RvodT8-D2HOuSGf13Yo-32" style="edgeStyle=orthogonalEdgeStyle;rounded=0;orthogonalLoop=1;jettySize=auto;html=1;entryX=0.5;entryY=0;entryDx=0;entryDy=0;" edge="1" parent="1" source="1RvodT8-D2HOuSGf13Yo-22" target="1RvodT8-D2HOuSGf13Yo-21">
          <mxGeometry relative="1" as="geometry">
            <Array as="points">
              <mxPoint x="740" y="628" />
              <mxPoint x="740" y="578" />
              <mxPoint x="380" y="578" />
            </Array>
          </mxGeometry>
        </mxCell>
        <mxCell id="1RvodT8-D2HOuSGf13Yo-33" value="Não" style="edgeLabel;html=1;align=center;verticalAlign=middle;resizable=0;points=[];" vertex="1" connectable="0" parent="1RvodT8-D2HOuSGf13Yo-32">
          <mxGeometry x="-0.6333" y="-4" relative="1" as="geometry">
            <mxPoint as="offset" />
          </mxGeometry>
        </mxCell>
        <mxCell id="1RvodT8-D2HOuSGf13Yo-22" value="Foi Aceite?" style="rhombus;whiteSpace=wrap;html=1;rounded=0;" vertex="1" parent="1">
          <mxGeometry x="590" y="587.5" width="80" height="80" as="geometry" />
        </mxCell>
        <mxCell id="1RvodT8-D2HOuSGf13Yo-36" style="edgeStyle=orthogonalEdgeStyle;rounded=0;orthogonalLoop=1;jettySize=auto;html=1;entryX=1;entryY=0.5;entryDx=0;entryDy=0;" edge="1" parent="1" source="1RvodT8-D2HOuSGf13Yo-23" target="1RvodT8-D2HOuSGf13Yo-27">
          <mxGeometry relative="1" as="geometry" />
        </mxCell>
        <mxCell id="1RvodT8-D2HOuSGf13Yo-23" value="Contratato de funcionários" style="whiteSpace=wrap;html=1;rounded=0;" vertex="1" parent="1">
          <mxGeometry x="560" y="742.5" width="120" height="60" as="geometry" />
        </mxCell>
        <mxCell id="1RvodT8-D2HOuSGf13Yo-39" style="edgeStyle=orthogonalEdgeStyle;rounded=0;orthogonalLoop=1;jettySize=auto;html=1;" edge="1" parent="1" source="1RvodT8-D2HOuSGf13Yo-24" target="1RvodT8-D2HOuSGf13Yo-25">
          <mxGeometry relative="1" as="geometry" />
        </mxCell>
        <mxCell id="1RvodT8-D2HOuSGf13Yo-24" value="Procurar transportadora" style="whiteSpace=wrap;html=1;rounded=0;" vertex="1" parent="1">
          <mxGeometry x="294" y="906.25" width="120" height="60" as="geometry" />
        </mxCell>
        <mxCell id="1RvodT8-D2HOuSGf13Yo-40" style="edgeStyle=orthogonalEdgeStyle;rounded=0;orthogonalLoop=1;jettySize=auto;html=1;" edge="1" parent="1" source="1RvodT8-D2HOuSGf13Yo-25" target="1RvodT8-D2HOuSGf13Yo-26">
          <mxGeometry relative="1" as="geometry" />
        </mxCell>
        <mxCell id="1RvodT8-D2HOuSGf13Yo-46" value="Sim" style="edgeLabel;html=1;align=center;verticalAlign=middle;resizable=0;points=[];" vertex="1" connectable="0" parent="1RvodT8-D2HOuSGf13Yo-40">
          <mxGeometry x="-0.7524" y="4" relative="1" as="geometry">
            <mxPoint as="offset" />
          </mxGeometry>
        </mxCell>
        <mxCell id="1RvodT8-D2HOuSGf13Yo-41" style="edgeStyle=orthogonalEdgeStyle;rounded=0;orthogonalLoop=1;jettySize=auto;html=1;entryX=0.5;entryY=0;entryDx=0;entryDy=0;" edge="1" parent="1" source="1RvodT8-D2HOuSGf13Yo-25" target="1RvodT8-D2HOuSGf13Yo-24">
          <mxGeometry relative="1" as="geometry">
            <Array as="points">
              <mxPoint x="673" y="880" />
              <mxPoint x="354" y="880" />
            </Array>
          </mxGeometry>
        </mxCell>
        <mxCell id="1RvodT8-D2HOuSGf13Yo-45" value="Não" style="edgeLabel;html=1;align=center;verticalAlign=middle;resizable=0;points=[];" vertex="1" connectable="0" parent="1RvodT8-D2HOuSGf13Yo-41">
          <mxGeometry x="-0.0297" y="2" relative="1" as="geometry">
            <mxPoint as="offset" />
          </mxGeometry>
        </mxCell>
        <mxCell id="1RvodT8-D2HOuSGf13Yo-25" value="Dá para transportar?" style="rhombus;whiteSpace=wrap;html=1;rounded=0;" vertex="1" parent="1">
          <mxGeometry x="630" y="888.75" width="86" height="92.5" as="geometry" />
        </mxCell>
        <mxCell id="1RvodT8-D2HOuSGf13Yo-42" style="edgeStyle=orthogonalEdgeStyle;rounded=0;orthogonalLoop=1;jettySize=auto;html=1;entryX=1;entryY=0.5;entryDx=0;entryDy=0;" edge="1" parent="1" source="1RvodT8-D2HOuSGf13Yo-26" target="1RvodT8-D2HOuSGf13Yo-19">
          <mxGeometry relative="1" as="geometry" />
        </mxCell>
        <mxCell id="1RvodT8-D2HOuSGf13Yo-26" value="Gestão da filial" style="whiteSpace=wrap;html=1;rounded=0;" vertex="1" parent="1">
          <mxGeometry x="613" y="1060" width="120" height="50" as="geometry" />
        </mxCell>
        <mxCell id="1RvodT8-D2HOuSGf13Yo-38" style="edgeStyle=orthogonalEdgeStyle;rounded=0;orthogonalLoop=1;jettySize=auto;html=1;entryX=0;entryY=0.5;entryDx=0;entryDy=0;" edge="1" parent="1" source="1RvodT8-D2HOuSGf13Yo-27" target="1RvodT8-D2HOuSGf13Yo-24">
          <mxGeometry relative="1" as="geometry">
            <Array as="points">
              <mxPoint x="274" y="785" />
              <mxPoint x="274" y="936" />
            </Array>
          </mxGeometry>
        </mxCell>
        <mxCell id="1RvodT8-D2HOuSGf13Yo-43" value="Sim" style="edgeLabel;html=1;align=center;verticalAlign=middle;resizable=0;points=[];" vertex="1" connectable="0" parent="1RvodT8-D2HOuSGf13Yo-38">
          <mxGeometry x="-0.3185" y="-3" relative="1" as="geometry">
            <mxPoint as="offset" />
          </mxGeometry>
        </mxCell>
        <mxCell id="1RvodT8-D2HOuSGf13Yo-27" value="Temos funcionários?" style="rhombus;whiteSpace=wrap;html=1;rounded=0;" vertex="1" parent="1">
          <mxGeometry x="314" y="740" width="100" height="90" as="geometry" />
        </mxCell>
        <mxCell id="1RvodT8-D2HOuSGf13Yo-37" style="edgeStyle=orthogonalEdgeStyle;rounded=0;orthogonalLoop=1;jettySize=auto;html=1;entryX=0.558;entryY=1.025;entryDx=0;entryDy=0;entryPerimeter=0;" edge="1" parent="1" source="1RvodT8-D2HOuSGf13Yo-27" target="1RvodT8-D2HOuSGf13Yo-23">
          <mxGeometry relative="1" as="geometry">
            <Array as="points">
              <mxPoint x="364" y="840" />
              <mxPoint x="627" y="840" />
            </Array>
          </mxGeometry>
        </mxCell>
        <mxCell id="1RvodT8-D2HOuSGf13Yo-44" value="Não" style="edgeLabel;html=1;align=center;verticalAlign=middle;resizable=0;points=[];" vertex="1" connectable="0" parent="1RvodT8-D2HOuSGf13Yo-37">
          <mxGeometry x="0.0809" relative="1" as="geometry">
            <mxPoint as="offset" />
          </mxGeometry>
        </mxCell>
      </root>
    </mxGraphModel>
  </diagram>
</mxfile>
